<svg xmlns="http://www.w3.org/2000/svg" viewBox="-0.5 -0.5 16 16" fill="#000000" id="Sign-Out--Streamline-Phosphor" height="16" width="16"><desc>Sign Out Streamline Icon: https://streamlinehq.com</desc><path d="M6.274798828125 14.237279296875c0 0.33826171875 -0.27421874999999996 0.61248046875 -0.61248046875 0.61248046875H0.76248046875c-0.33826171875 0 -0.61248046875 -0.27421874999999996 -0.61248046875 -0.61248046875V0.762720703125c0 -0.33826171875 0.27421874999999996 -0.61248046875 0.61248046875 -0.61248046875h4.899837890625c0.47148632812499996 0 0.7661660156250001 0.5103984375 0.53042578125 0.9187207031250001 -0.109412109375 0.18950390625 -0.311607421875 0.306240234375 -0.53042578125 0.306240234375H1.3749609375v12.24959765625h4.287357421875c0.33826171875 0 0.61248046875 0.27421874999999996 0.61248046875 0.61248046875Zm8.3955703125 -7.170609375 -3.06240234375 -3.062396484375c-0.33357421875 -0.333580078125 -0.903169921875 -0.180955078125 -1.025267578125 0.274716796875 -0.056666015624999996 0.21148242187500002 0.003796875 0.437126953125 0.15860742187500002 0.5919375l2.017359375 2.016591796875H5.662318359375c-0.47148632812499996 0 -0.7661660156250001 0.5103984375 -0.530419921875 0.9187207031250001 0.10940625 0.18950390625 0.3116015625 0.306240234375 0.530419921875 0.306240234375h7.09634765625l-2.017359375 2.016591796875c-0.33357421875 0.33357421875 -0.180955078125 0.903169921875 0.27472265625000003 1.025267578125 0.2114765625 0.056666015624999996 0.437126953125 -0.003796875 0.5919375 -0.15861328125l3.06240234375 -3.062396484375c0.2395078125 -0.239244140625 0.2395078125 -0.627416015625 0 -0.86666015625Z" stroke-width="1"></path></svg>